<?xml version="1.0" standalone="no"?>
<!DOCTYPE svg PUBLIC "-//W3C//DTD SVG 20010904//EN"
 "http://www.w3.org/TR/2001/REC-SVG-20010904/DTD/svg10.dtd">
<svg version="1.0" xmlns="http://www.w3.org/2000/svg"
 width="616.000000pt" height="511.000000pt" viewBox="0 0 616.000000 511.000000"
 preserveAspectRatio="xMidYMid meet">
<metadata>
Created by potrace 1.16, written by Peter Selinger 2001-2019
</metadata>
<g transform="translate(0.000000,511.000000) scale(0.100000,-0.100000)"
fill="#0071BF" stroke="none">
<path d="M3310 4960 c-242 -47 -570 -123 -870 -202 -354 -93 -482 -129 -508
-142 -57 -30 -112 -88 -144 -153 -28 -58 -32 -74 -31 -147 1 -44 6 -102 12
-127 20 -86 61 -443 76 -664 12 -170 14 -318 10 -655 -3 -239 -9 -459 -13
-489 -6 -48 -11 -55 -44 -75 l-37 -21 -45 44 c-25 25 -48 42 -51 40 -11 -11
182 -180 281 -247 82 -54 126 -81 144 -87 11 -3 20 -10 20 -14 0 -12 236 -126
332 -159 120 -43 222 -62 325 -62 242 0 653 80 850 166 17 8 33 14 36 14 3 0
45 18 93 41 165 78 300 171 409 282 74 76 118 127 110 127 -3 0 4 9 15 20 20
20 26 40 13 40 -5 0 -35 -36 -67 -80 -32 -44 -65 -80 -72 -80 -7 0 -29 24 -47
53 -19 28 -46 63 -61 77 l-27 24 7 366 c5 274 3 376 -6 410 -23 84 -24 133 -2
160 18 22 18 26 3 82 -12 47 -13 63 -3 78 15 25 15 74 0 125 -11 35 -12 37
-16 15 -6 -42 -22 -48 -22 -8 0 20 4 38 10 40 5 2 12 39 16 83 5 61 3 88 -9
115 l-15 35 -1 -38 c-1 -23 -5 -36 -11 -32 -14 9 -13 58 2 73 13 13 1 172 -33
455 -17 139 -23 166 -55 231 -38 78 -133 201 -190 247 -43 34 -145 69 -198 68
-23 0 -106 -13 -186 -29z m-436 -326 c26 -10 19 -43 -11 -55 -14 -5 -33 -9
-42 -8 -9 1 -19 1 -23 0 -5 0 -9 -1 -10 0 -2 0 -15 -4 -30 -10 -17 -6 -28 -7
-28 -1 0 5 -9 14 -19 19 -16 9 -18 8 -14 -8 4 -14 -5 -21 -42 -31 -41 -11 -48
-11 -63 4 -14 14 -14 18 -2 30 17 17 82 33 127 32 17 -1 29 2 27 5 -2 4 14 6
35 5 24 -1 37 2 34 8 -4 5 3 7 15 4 12 -4 20 -2 16 3 -6 10 7 12 30 3z m-4
-124 c6 9 13 9 29 1 17 -10 19 -15 11 -31 -6 -11 -18 -21 -28 -21 -9 -1 -33
-4 -52 -6 -19 -3 -47 -5 -62 -5 -16 -1 -28 -5 -28 -11 0 -6 -2 -8 -6 -5 -3 3
-26 0 -51 -8 -57 -17 -90 -5 -72 27 12 23 18 26 74 34 22 3 55 8 73 11 28 6
32 4 26 -12 -4 -14 -2 -13 8 3 10 17 17 20 32 11 13 -7 17 -7 12 0 -3 6 0 12
6 15 7 2 15 0 17 -6 2 -5 7 -4 11 3z m779 -172 c61 -507 98 -1294 79 -1678
-19 -373 -40 -636 -51 -647 -18 -18 -298 -108 -407 -131 -156 -34 -297 -52
-445 -58 -129 -5 -148 -4 -239 20 -113 29 -276 98 -431 181 l-107 57 6 107
c40 643 19 1321 -58 1881 -8 52 -13 96 -11 97 5 7 1251 206 1575 251 36 5 68
10 71 11 4 0 12 -41 18 -91z"/>
<path d="M3140 3400 c-20 -12 -3 -28 35 -32 22 -2 30 -8 30 -23 0 -16 -8 -21
-35 -23 -19 -2 -46 -14 -60 -27 -14 -13 -36 -25 -50 -27 -20 -2 -26 -9 -28
-38 -5 -47 13 -102 44 -140 83 -99 216 -73 269 52 38 93 -1 209 -87 254 -31
16 -96 18 -118 4z"/>
<path d="M2482 3389 c-28 -11 -28 -15 4 -44 27 -25 25 -45 -5 -45 -10 0 -32
-7 -49 -16 -18 -8 -36 -13 -42 -9 -5 3 -15 -6 -20 -21 -21 -55 18 -161 73
-194 93 -57 196 24 197 154 0 108 -85 202 -158 175z"/>
<path d="M2234 2607 c66 -43 84 -60 130 -127 29 -41 77 -118 108 -170 97 -164
211 -250 331 -250 92 0 148 33 292 172 136 131 271 286 220 254 -58 -38 -170
-92 -217 -105 -45 -13 -48 -16 -50 -50 -1 -35 -1 -35 -5 -5 l-4 32 -123 -5
c-95 -5 -140 -2 -202 12 -155 34 -292 101 -355 173 -18 20 -54 46 -82 59 -52
25 -74 29 -43 10z"/>
<path d="M5084 3226 c-39 -20 -79 -45 -90 -57 -11 -12 2 -7 34 14 62 42 141
62 207 53 26 -4 45 -10 42 -13 -3 -2 -38 -9 -77 -14 -79 -10 -151 -43 -196
-90 -33 -34 -15 -38 28 -7 51 36 140 68 191 68 91 0 189 -69 233 -165 109
-238 -21 -612 -251 -721 -62 -30 -152 -32 -210 -5 -116 53 -187 218 -171 398
7 73 49 228 67 248 5 5 9 16 9 24 0 27 -37 -18 -59 -72 -26 -66 -51 -163 -51
-200 0 -23 -4 -28 -16 -23 -14 5 -15 -7 -12 -101 3 -98 6 -115 36 -179 61
-131 154 -196 284 -202 72 -4 105 2 182 33 17 8 18 7 3 -16 -9 -13 -17 -28
-18 -34 -2 -11 -5 -19 -53 -135 l-36 -85 -42 3 c-27 2 -51 11 -65 24 -13 12
-26 19 -29 15 -3 -3 -24 -59 -45 -124 -97 -289 -193 -452 -352 -602 -163 -153
-408 -274 -689 -342 -54 -12 -100 -20 -104 -16 -3 3 5 68 19 144 47 254 87
526 112 767 7 76 15 139 17 141 2 1 34 23 72 49 l69 48 46 -26 c47 -25 162
-59 234 -70 31 -4 38 -2 33 10 -3 8 -8 43 -12 78 l-7 64 -48 22 c-26 13 -60
31 -74 40 l-26 17 38 44 c58 67 106 147 99 165 -4 9 20 51 63 111 60 83 171
283 171 308 0 4 -25 -34 -57 -86 -46 -77 -116 -175 -189 -265 -6 -8 -18 -14
-26 -14 -8 0 -35 -28 -61 -63 -91 -125 -227 -242 -392 -337 -48 -28 -89 -50
-91 -50 -2 0 -32 -13 -67 -29 -205 -95 -500 -173 -767 -201 -163 -18 -393 -8
-488 19 -277 81 -621 283 -833 491 -35 34 -63 54 -70 50 -15 -10 -86 69 -168
185 -80 113 -93 126 -51 50 57 -102 170 -263 193 -273 4 -2 7 -12 7 -22 0 -10
11 -32 25 -48 13 -16 22 -32 18 -36 -3 -3 0 -6 8 -6 8 0 20 -9 26 -20 15 -24
0 -34 -65 -44 -48 -7 -87 7 -78 30 4 11 -4 14 -32 14 -35 0 -37 -2 -39 -33 -1
-17 -5 -46 -8 -64 -5 -30 -4 -32 31 -39 59 -11 215 1 251 19 40 21 53 21 79
-1 20 -17 20 -20 8 -137 -30 -277 -69 -560 -116 -838 -29 -173 -31 -193 -19
-250 16 -78 48 -134 106 -185 50 -44 84 -59 350 -157 254 -94 664 -253 907
-351 180 -73 215 -84 267 -84 119 0 215 56 268 157 30 55 133 422 133 471 0
13 6 22 15 22 8 0 15 -5 15 -11 0 -6 -23 -102 -50 -212 -52 -209 -79 -280
-127 -344 l-28 -37 33 23 c80 56 114 131 180 401 25 102 46 186 47 188 2 2 54
14 116 27 380 79 670 223 885 439 104 105 208 249 262 364 16 34 34 68 40 75
6 6 33 82 62 167 28 85 57 166 64 180 8 14 30 66 51 115 21 50 46 109 56 132
11 24 19 48 19 54 0 6 18 33 40 59 36 43 44 48 73 44 18 -3 46 -1 62 4 29 9
31 8 58 -47 30 -60 28 -52 -9 49 -27 72 -29 101 -13 132 12 21 11 21 -16 0
-15 -12 -31 -22 -35 -22 -4 0 9 41 29 91 l36 91 8 -49 c6 -32 5 -54 -3 -67
-11 -18 -11 -18 14 0 19 14 24 25 20 39 -15 49 -15 74 0 102 16 31 12 64 -11
98 -7 11 -13 25 -13 32 0 25 39 -10 51 -45 10 -30 14 -33 38 -27 35 9 35 9 21
49 -12 36 -64 90 -99 101 -13 4 -21 19 -26 48 -15 86 -56 176 -104 226 -67 71
-118 94 -221 99 -81 4 -88 2 -156 -32z m-1169 -1452 c-28 -255 -56 -433 -127
-826 -7 -40 -15 -58 -25 -58 -9 0 -12 7 -9 18 29 102 114 617 142 865 13 122
20 154 31 144 2 -3 -3 -67 -12 -143z m-1725 19 c166 -82 261 -117 387 -142
l88 -18 8 -49 c25 -152 39 -209 66 -281 33 -83 101 -193 164 -263 21 -24 36
-44 35 -46 -2 -2 -157 39 -343 90 -187 51 -407 110 -490 131 -82 21 -154 42
-158 45 -5 4 1 54 12 111 22 108 61 401 61 455 0 30 8 47 19 42 3 -2 71 -35
151 -75z m1466 -65 c-11 -116 -62 -457 -97 -655 -36 -205 -28 -194 -120 -167
-140 42 -307 154 -404 271 -97 117 -160 269 -167 403 l-3 55 40 2 c210 13 536
79 700 142 28 10 52 20 54 20 2 1 0 -32 -3 -71z m1139 -396 c-6 -4 -29 -29
-50 -56 -43 -53 -204 -192 -252 -216 -15 -8 -30 -18 -33 -21 -14 -16 -148 -83
-245 -122 -319 -128 -624 -152 -845 -67 -30 12 -62 28 -70 35 -8 7 -24 15 -35
19 -26 8 -126 90 -137 113 -8 16 -8 16 4 2 7 -9 23 -19 35 -23 13 -4 29 -14
37 -22 27 -27 190 -95 276 -116 199 -47 552 12 818 137 40 19 77 35 83 35 5 0
9 5 9 11 0 5 4 8 9 5 5 -4 11 -2 13 2 1 5 30 23 63 42 33 18 62 36 65 40 3 3
21 17 40 30 19 14 46 35 60 47 14 13 39 33 55 44 17 12 41 36 55 55 14 18 32
34 40 34 9 0 11 -3 5 -8z m-2603 -507 c79 -28 136 -107 105 -149 -13 -18 -15
-18 -60 2 -47 21 -57 38 -35 60 15 15 3 28 -36 38 -25 6 -28 4 -22 -13 12 -37
-17 -47 -68 -24 -25 11 -46 23 -46 26 0 19 26 48 53 60 41 18 54 18 109 0z
m436 -109 c10 -14 27 -45 36 -70 17 -45 17 -45 -9 -90 -15 -25 -35 -48 -44
-51 -27 -8 -114 27 -126 52 -6 12 -9 43 -6 70 6 45 9 49 61 80 30 18 57 33 61
33 4 0 16 -11 27 -24z m480 -184 c12 -81 -121 -189 -205 -167 -29 7 -63 40
-63 60 0 19 57 55 88 55 17 0 22 -6 22 -25 0 -28 8 -30 45 -13 26 12 32 23 15
33 -21 13 -9 46 23 65 41 26 71 22 75 -8z"/>
<path d="M2544 690 l-52 -29 2 -53 c1 -47 4 -54 29 -66 15 -7 42 -16 61 -19
30 -5 35 -2 54 32 12 20 22 44 22 53 -1 23 -42 105 -55 109 -5 1 -33 -10 -61
-27z"/>
<path d="M3043 530 c-37 -22 -41 -35 -16 -49 15 -8 15 -11 3 -26 -19 -23 -66
-46 -83 -39 -9 3 -12 14 -9 30 5 28 -5 30 -53 7 -39 -19 -43 -32 -17 -56 65
-59 243 38 230 125 -4 29 -18 31 -55 8z"/>
</g>
</svg>
